<?xml version="1.0" encoding="UTF-8" standalone="no"?>
<svg width="219px" height="43px" viewBox="0 0 219 43" version="1.1" xmlns="http://www.w3.org/2000/svg" xmlns:xlink="http://www.w3.org/1999/xlink">
    <!-- Generator: Sketch 3.8.2 (29753) - http://www.bohemiancoding.com/sketch -->
    <title>BW_WR-pc2_goud_zwart Copy</title>
    <desc>Created with Sketch.</desc>
    <defs></defs>
    <g id="Symbols" stroke="none" stroke-width="1" fill="none" fill-rule="evenodd">
        <g id="footer_3_desktop" transform="translate(-26.000000, -18.000000)">
            <g id="BW_WR-pc2_goud_zwart-Copy" transform="translate(26.000000, 18.000000)">
                <path d="M49.883,24.011 L51.095,24.011 L51.347,23.996 L51.613,23.981 L51.879,23.967 L52.13,23.922 L52.382,23.879 L52.618,23.82 L52.84,23.746 L53.047,23.673 L53.239,23.556 L53.417,23.438 L53.579,23.306 L53.712,23.144 L53.816,22.968 L53.89,22.777 L53.934,22.557 L53.964,22.322 L53.934,22.058 L53.89,21.823 L53.816,21.618 L53.712,21.441 L53.594,21.295 L53.446,21.162 L53.269,21.06 L53.077,20.972 L52.87,20.898 L52.663,20.839 L52.426,20.795 L52.175,20.751 L51.923,20.737 L51.672,20.722 L49.883,20.722 L49.883,24.011 L49.883,24.011 Z M49.883,30.676 L51.169,30.676 L51.45,30.661 L51.746,30.661 L52.042,30.632 L52.323,30.603 L52.603,30.559 L52.87,30.514 L53.121,30.441 L53.358,30.353 L53.565,30.235 L53.772,30.103 L53.949,29.957 L54.097,29.78 L54.215,29.575 L54.304,29.355 L54.348,29.09 L54.378,28.811 L54.348,28.488 L54.289,28.224 L54.2,27.975 L54.082,27.769 L53.934,27.593 L53.757,27.431 L53.565,27.299 L53.343,27.197 L53.106,27.108 L52.855,27.035 L52.589,26.991 L52.323,26.947 L52.042,26.918 L51.761,26.903 L49.883,26.903 L49.883,30.676 L49.883,30.676 Z M45.595,17.683 L53.017,17.683 L53.565,17.698 L54.097,17.742 L54.614,17.815 L55.087,17.918 L55.561,18.065 L55.99,18.241 L56.389,18.432 L56.758,18.681 L57.084,18.945 L57.379,19.239 L57.631,19.577 L57.853,19.944 L58.015,20.34 L58.148,20.781 L58.222,21.236 L58.252,21.75 L58.237,22.102 L58.193,22.454 L58.133,22.777 L58.059,23.086 L57.956,23.379 L57.823,23.658 L57.675,23.908 L57.498,24.143 L57.305,24.363 L57.098,24.568 L56.862,24.745 L56.61,24.921 L56.344,25.082 L56.049,25.229 L55.738,25.361 L55.413,25.479 L55.413,25.523 L55.797,25.611 L56.167,25.714 L56.507,25.831 L56.817,25.978 L57.113,26.139 L57.379,26.316 L57.616,26.506 L57.838,26.727 L58.03,26.947 L58.193,27.197 L58.34,27.461 L58.459,27.74 L58.547,28.048 L58.607,28.371 L58.651,28.709 L58.666,29.076 L58.621,29.751 L58.503,30.368 L58.326,30.911 L58.089,31.395 L57.779,31.836 L57.438,32.203 L57.039,32.54 L56.61,32.819 L56.137,33.04 L55.635,33.23 L55.117,33.392 L54.585,33.51 L54.038,33.598 L53.491,33.656 L52.929,33.686 L52.396,33.7 L45.595,33.7 L45.595,17.683 L45.595,17.683 Z" id="Fill-1" fill="#FFFFFF"></path>
                <path d="M68.351,24.334 L69.489,24.334 L69.74,24.319 L70.007,24.319 L70.287,24.304 L70.554,24.29 L70.82,24.26 L71.071,24.216 L71.322,24.157 L71.559,24.084 L71.781,23.981 L71.988,23.849 L72.165,23.702 L72.313,23.526 L72.446,23.321 L72.535,23.071 L72.594,22.792 L72.624,22.484 L72.594,22.205 L72.55,21.97 L72.461,21.764 L72.357,21.573 L72.224,21.397 L72.062,21.265 L71.869,21.133 L71.662,21.03 L71.441,20.942 L71.189,20.883 L70.938,20.825 L70.657,20.781 L70.376,20.751 L70.08,20.722 L68.351,20.722 L68.351,24.334 L68.351,24.334 Z M64.048,17.683 L71.722,17.683 L72.239,17.698 L72.757,17.742 L73.259,17.815 L73.732,17.918 L74.191,18.05 L74.62,18.226 L75.019,18.432 L75.389,18.667 L75.729,18.931 L76.024,19.224 L76.29,19.548 L76.512,19.914 L76.69,20.311 L76.808,20.751 L76.897,21.206 L76.926,21.72 L76.911,22.102 L76.867,22.484 L76.808,22.836 L76.734,23.174 L76.616,23.497 L76.483,23.805 L76.335,24.084 L76.157,24.348 L75.95,24.598 L75.714,24.818 L75.463,25.024 L75.182,25.214 L74.886,25.376 L74.546,25.523 L74.191,25.655 L73.821,25.758 L73.821,25.802 L74.058,25.875 L74.28,25.978 L74.472,26.095 L74.649,26.227 L74.812,26.389 L74.945,26.565 L75.078,26.756 L75.196,26.976 L75.3,27.211 L75.403,27.461 L75.507,27.725 L75.61,28.019 L75.729,28.312 L75.847,28.635 L75.98,28.973 L76.128,29.34 L77.695,33.7 L73.2,33.7 L72.283,30.808 L72.106,30.309 L71.958,29.868 L71.81,29.457 L71.648,29.105 L71.5,28.782 L71.352,28.503 L71.189,28.268 L71.027,28.048 L70.849,27.872 L70.672,27.725 L70.48,27.608 L70.273,27.519 L70.036,27.446 L69.799,27.402 L69.533,27.373 L68.351,27.373 L68.351,33.7 L64.048,33.7 L64.048,17.683 L64.048,17.683 Z" id="Fill-3" fill="#FFFFFF"></path>
                <path d="M89.598,20.986 L89.553,20.986 L87.469,27.255 L91.52,27.255 L89.598,20.986 L89.598,20.986 Z M86.966,17.683 L92.244,17.683 L98.44,33.7 L93.738,33.7 L92.54,30.28 L86.478,30.28 L85.206,33.7 L80.83,33.7 L86.966,17.683 L86.966,17.683 Z" id="Fill-4" fill="#FFFFFF"></path>
                <polyline id="Fill-5" fill="#FFFFFF" points="102.772 17.683 108.258 17.683 113.714 28.562 113.758 28.562 113.684 17.683 117.617 17.683 117.617 33.7 112.279 33.7 106.631 22.748 106.587 22.748 106.72 33.7 102.772 33.7 102.772 17.683"></polyline>
                <path d="M128.145,30.544 L129.801,30.544 L130.377,30.514 L130.939,30.456 L131.457,30.368 L131.945,30.221 L132.388,30.059 L132.802,29.839 L133.172,29.589 L133.512,29.311 L133.822,28.988 L134.074,28.621 L134.31,28.224 L134.488,27.784 L134.636,27.314 L134.739,26.8 L134.798,26.257 L134.828,25.684 L134.798,25.097 L134.739,24.554 L134.621,24.055 L134.473,23.585 L134.296,23.144 L134.059,22.748 L133.793,22.396 L133.482,22.073 L133.142,21.779 L132.773,21.529 L132.359,21.324 L131.9,21.148 L131.427,21.016 L130.91,20.927 L130.363,20.869 L129.801,20.854 L128.145,20.854 L128.145,30.544 L128.145,30.544 Z M123.842,17.683 L129.712,17.683 L130.732,17.698 L131.723,17.756 L132.669,17.874 L133.571,18.05 L134.399,18.27 L135.198,18.549 L135.922,18.901 L136.587,19.313 L137.179,19.812 L137.711,20.37 L138.155,21.03 L138.539,21.764 L138.85,22.572 L139.057,23.497 L139.19,24.51 L139.249,25.626 L139.19,26.697 L139.057,27.681 L138.835,28.591 L138.524,29.413 L138.14,30.147 L137.682,30.808 L137.134,31.395 L136.543,31.909 L135.863,32.35 L135.138,32.717 L134.355,33.025 L133.512,33.275 L132.625,33.465 L131.693,33.598 L130.717,33.671 L129.712,33.7 L123.842,33.7 L123.842,17.683 L123.842,17.683 Z" id="Fill-6" fill="#FFFFFF"></path>
                <polyline id="Fill-7" fill="#FFFFFF" points="143.078 17.683 147.455 17.683 149.555 29.986 149.599 29.986 151.772 17.683 157.229 17.683 159.491 29.986 159.535 29.986 161.635 17.683 165.834 17.683 162.211 33.7 156.696 33.7 154.404 21.397 154.36 21.397 152.231 33.7 146.657 33.7 143.078 17.683"></polyline>
                <polyline id="Fill-8" fill="#FFFFFF" points="170.432 17.683 181.817 17.683 181.817 20.722 174.735 20.722 174.735 24.011 181.418 24.011 181.418 27.035 174.735 27.035 174.735 30.676 182.069 30.676 182.069 33.7 170.432 33.7 170.432 17.683"></polyline>
                <polyline id="Fill-9" fill="#FFFFFF" points="187.806 17.683 199.191 17.683 199.191 20.722 192.123 20.722 192.123 24.011 198.806 24.011 198.806 27.035 192.123 27.035 192.123 30.676 199.442 30.676 199.442 33.7 187.806 33.7 187.806 17.683"></polyline>
                <path d="M209.497,24.334 L210.635,24.334 L210.887,24.319 L211.153,24.319 L211.434,24.304 L211.7,24.29 L211.966,24.26 L212.232,24.216 L212.483,24.157 L212.72,24.084 L212.942,23.981 L213.149,23.849 L213.326,23.702 L213.474,23.526 L213.607,23.321 L213.696,23.071 L213.755,22.792 L213.785,22.484 L213.755,22.205 L213.711,21.97 L213.622,21.764 L213.518,21.573 L213.371,21.397 L213.208,21.265 L213.03,21.133 L212.823,21.03 L212.587,20.942 L212.35,20.883 L212.084,20.825 L211.818,20.781 L211.522,20.751 L211.241,20.722 L209.497,20.722 L209.497,24.334 L209.497,24.334 Z M205.209,17.683 L212.883,17.683 L213.4,17.698 L213.918,17.742 L214.42,17.815 L214.893,17.918 L215.352,18.05 L215.781,18.226 L216.18,18.432 L216.55,18.667 L216.875,18.931 L217.185,19.224 L217.437,19.548 L217.658,19.914 L217.836,20.311 L217.954,20.751 L218.043,21.206 L218.072,21.72 L218.058,22.102 L218.013,22.484 L217.954,22.836 L217.88,23.174 L217.762,23.497 L217.644,23.805 L217.481,24.084 L217.304,24.348 L217.097,24.598 L216.875,24.818 L216.609,25.024 L216.343,25.214 L216.032,25.376 L215.707,25.523 L215.352,25.655 L214.982,25.758 L214.982,25.802 L215.219,25.875 L215.441,25.978 L215.633,26.095 L215.81,26.227 L215.958,26.389 L216.091,26.565 L216.224,26.756 L216.343,26.976 L216.446,27.211 L216.55,27.461 L216.653,27.725 L216.757,28.019 L216.875,28.312 L216.993,28.635 L217.126,28.973 L217.274,29.34 L218.841,33.7 L214.361,33.7 L213.444,30.808 L213.267,30.309 L213.119,29.868 L212.957,29.457 L212.809,29.105 L212.661,28.782 L212.498,28.503 L212.35,28.268 L212.188,28.048 L212.01,27.872 L211.818,27.725 L211.626,27.608 L211.419,27.519 L211.182,27.446 L210.946,27.402 L210.68,27.373 L209.497,27.373 L209.497,33.7 L205.209,33.7 L205.209,17.683 L205.209,17.683 Z" id="Fill-10" fill="#FFFFFF"></path>
                <polyline id="Fill-11" fill="#C9AF53" points="16.112 25.053 15.846 24.436 15.55 23.849 15.225 23.276 14.515 22.161 14.145 21.618 13.761 21.074 13.391 20.546 13.007 20.017 12.652 19.503 12.297 18.975 11.972 18.461 11.661 17.932 11.38 17.419 11.144 16.89 10.952 16.362 10.774 16.406 10.597 16.464 10.434 16.523 10.257 16.567 10.094 16.626 9.931 16.699 9.769 16.758 9.443 16.875 9.281 16.949 9.133 17.008 8.985 17.081 8.822 17.14 8.675 17.213 8.527 17.286 8.394 17.36 8.497 18.696 8.675 19.988 8.941 21.206 9.266 22.381 9.65 23.482 10.109 24.525 10.597 25.523 11.129 26.448 11.706 27.314 12.297 28.136 12.918 28.899 13.554 29.604 14.19 30.25 14.84 30.838 15.476 31.381 16.112 31.88 16.289 31.337 16.437 30.823 16.57 30.324 16.659 29.839 16.733 29.384 16.777 28.944 16.807 28.518 16.807 28.107 16.777 27.696 16.733 27.299 16.674 26.918 16.496 26.154 16.378 25.787 16.112 25.053"></polyline>
                <polyline id="Fill-12" fill="#C9AF53" points="23.357 12.236 23.963 12.324 24.555 12.427 25.146 12.53 25.738 12.662 26.314 12.794 26.891 12.941 27.453 13.088 28.014 13.264 28.547 13.44 29.079 13.631 29.597 13.822 30.114 14.027 30.602 14.247 31.548 14.717 32.007 14.981 31.977 15.936 31.933 16.861 31.844 17.786 31.726 18.667 31.593 19.548 31.415 20.384 31.223 21.221 31.001 22.014 30.75 22.807 30.484 23.57 30.203 24.304 29.892 25.024 29.567 25.714 29.227 26.404 28.872 27.05 28.502 27.696 31.622 31.249 32.14 30.426 32.628 29.575 33.116 28.694 33.559 27.784 33.988 26.844 34.402 25.875 34.772 24.877 35.112 23.849 35.422 22.777 35.703 21.691 35.94 20.56 36.147 19.401 36.295 18.212 36.413 16.978 36.487 15.716 36.516 14.438 35.807 13.939 35.053 13.455 34.269 13.014 33.456 12.603 32.598 12.207 31.711 11.854 30.809 11.517 29.863 11.208 28.902 10.93 27.926 10.68 26.92 10.445 25.9 10.24 24.865 10.063 23.815 9.917 22.751 9.799 21.686 9.711 21.76 9.858 21.849 10.019 21.952 10.181 22.041 10.342 22.248 10.665 22.337 10.827 22.455 10.988 22.662 11.311 22.765 11.458 23.002 11.781 23.12 11.928 23.224 12.075 23.357 12.236"></polyline>
                <polyline id="Fill-13" fill="#C9AF53" points="4.83 14.981 4.845 15.936 4.889 16.861 4.978 17.786 5.082 18.667 5.229 19.548 5.392 20.384 5.584 21.221 5.806 22.014 6.058 22.807 6.324 23.57 6.605 24.304 6.915 25.024 7.24 25.714 7.595 26.404 7.95 27.05 8.334 27.696 5.2 31.249 4.668 30.426 4.18 29.575 3.692 28.694 3.248 27.784 2.819 26.844 2.405 25.875 2.036 24.877 1.696 23.849 1.385 22.777 1.104 21.691 0.868 20.56 0.675 19.401 0.513 18.212 0.395 16.978 0.321 15.716 0.306 14.438 0.838 14.057 1.385 13.69 1.962 13.337 2.568 13 3.189 12.691 3.825 12.383 4.49 12.104 5.156 11.825 5.851 11.576 6.56 11.341 7.285 11.106 8.024 10.9 8.763 10.709 9.532 10.533 10.301 10.372 11.085 10.225 10.966 10.548 10.922 10.724 10.878 10.885 10.833 11.047 10.789 11.208 10.745 11.37 10.715 11.531 10.686 11.693 10.626 12.016 10.597 12.163 10.582 12.324 10.552 12.618 10.538 12.779 10.138 12.867 9.739 12.97 9.355 13.088 8.97 13.205 8.586 13.322 8.216 13.44 7.847 13.572 7.492 13.704 7.137 13.851 6.782 13.998 6.442 14.145 6.102 14.306 5.777 14.468 5.126 14.791 4.83 14.981"></polyline>
                <polyline id="Fill-14" fill="#C9AF53" points="18.404 42.23 17.96 42.069 17.487 41.878 16.984 41.643 16.452 41.393 15.905 41.114 15.328 40.806 14.752 40.454 14.145 40.087 13.524 39.676 12.889 39.235 12.253 38.765 11.602 38.266 10.952 37.738 10.301 37.165 9.65 36.563 9.015 35.947 12.105 32.423 12.534 32.834 13.391 33.598 13.82 33.95 14.234 34.302 14.663 34.611 15.077 34.919 15.491 35.212 15.89 35.477 16.274 35.726 16.659 35.961 17.029 36.182 17.398 36.372 17.738 36.548 18.078 36.725 18.404 36.872 18.714 36.725 19.054 36.548 19.409 36.372 19.764 36.182 20.134 35.961 20.518 35.726 20.917 35.477 21.316 35.212 21.73 34.919 22.145 34.611 22.573 34.302 22.987 33.95 23.416 33.598 24.274 32.834 24.717 32.423 27.808 35.947 27.157 36.563 26.506 37.165 25.856 37.738 25.205 38.266 24.555 38.765 23.919 39.235 23.283 39.676 22.662 40.087 22.056 40.454 21.464 40.806 20.902 41.114 20.355 41.393 19.823 41.643 19.32 41.878 18.847 42.069 18.404 42.23"></polyline>
                <polyline id="Fill-15" fill="#C9AF53" points="23.12 25.024 23.564 24.378 23.963 23.732 24.289 23.1 24.584 22.484 24.821 21.867 25.028 21.265 25.176 20.678 25.294 20.091 25.383 19.533 25.427 18.99 25.457 18.461 25.457 17.962 25.427 17.477 25.383 17.022 25.324 16.582 25.264 16.185 25.471 16.244 25.678 16.303 26.092 16.42 26.506 16.567 26.713 16.626 26.906 16.699 27.113 16.773 27.305 16.861 27.497 16.934 27.689 17.008 27.882 17.096 28.059 17.184 28.236 17.272 28.428 17.36 28.281 19.034 28.014 20.619 27.63 22.102 27.157 23.497 26.58 24.803 25.944 26.007 25.25 27.138 24.495 28.165 23.712 29.105 22.913 29.957 22.1 30.735 21.302 31.41 20.518 32.012 19.764 32.526 19.054 32.966 18.404 33.333 18.315 33.289 18.226 33.245 18.138 33.186 18.049 33.142 17.96 33.098 17.871 33.04 17.783 32.996 17.679 32.937 17.59 32.878 17.487 32.819 17.398 32.761 17.295 32.702 17.206 32.643 17.103 32.57 16.999 32.511 16.91 32.452 17.857 31.131 18.566 29.824 19.054 28.533 19.35 27.285 19.483 26.081 19.453 24.906 19.291 23.79 19.04 22.748 18.699 21.75 18.315 20.839 17.886 20.017 17.457 19.268 17.029 18.623 16.659 18.079 16.334 17.639 16.112 17.331 15.92 17.066 15.727 16.787 15.535 16.494 15.343 16.185 15.136 15.877 14.944 15.554 14.766 15.216 14.574 14.879 14.397 14.526 14.071 13.822 13.938 13.469 13.79 13.117 13.672 12.765 13.569 12.398 13.495 12.06 13.376 11.473 13.288 10.871 13.243 10.225 13.243 9.579 13.288 8.889 13.376 8.199 13.524 7.479 13.731 6.745 14.012 5.982 14.352 5.218 14.752 4.44 15.254 3.647 15.816 2.84 16.482 2.032 17.221 1.21 18.078 0.388 18.404 0.52 17.99 1.284 17.65 2.018 17.369 2.723 17.132 3.383 16.94 4.015 16.792 4.631 16.688 5.204 16.644 5.776 16.615 6.305 16.629 6.833 16.674 7.347 16.762 7.861 16.866 8.345 16.999 8.845 17.147 9.344 17.324 9.843 17.546 10.386 17.827 10.973 18.167 11.561 18.537 12.177 18.936 12.809 19.365 13.455 19.808 14.101 20.252 14.776 20.696 15.437 21.124 16.112 21.523 16.787 21.908 17.463 22.263 18.138 22.558 18.813 22.795 19.489 22.987 20.149 23.032 20.399 23.076 20.663 23.165 21.221 23.18 21.5 23.209 21.779 23.209 22.675 23.194 22.983 23.165 23.306 23.12 23.614 23.076 23.937 23.017 24.26 22.869 24.935 23.12 25.024"></polyline>
            </g>
        </g>
    </g>
</svg>