<svg width="323" height="174" viewBox="0 0 323 174" fill="none" xmlns="http://www.w3.org/2000/svg">
<path d="M1 43C1 26.4315 14.4315 13 31 13H293C309.569 13 323 26.4315 323 43V124C323 151.614 300.614 174 273 174H51C23.3858 174 1 151.614 1 124V43Z" fill="#D0021B"/>
<path d="M64.7244 138V114.384L69.3964 114V134.256H77.2684L76.7884 138H64.7244ZM79.4684 117.68V113.04L83.9484 112.72V117.488L79.4684 117.68ZM79.4364 138.192V120.368L83.9164 119.984V137.808L79.4364 138.192ZM87.8426 120.368L92.2266 119.984V122.288C92.888 121.52 93.6453 120.912 94.4986 120.464C95.3733 119.995 96.2373 119.76 97.0906 119.76C98.4346 119.76 99.32 120.699 99.7466 122.576C101.155 120.699 102.733 119.76 104.483 119.76C105.635 119.76 106.456 120.219 106.947 121.136C107.437 122.053 107.683 123.419 107.683 125.232V137.808L103.267 138.192V125.456C103.267 124.88 103.16 124.432 102.947 124.112C102.733 123.771 102.488 123.6 102.211 123.6C101.763 123.6 101.336 123.728 100.931 123.984C100.547 124.219 100.216 124.517 99.9386 124.88V137.808L95.5546 138.192V125.424C95.5546 124.827 95.4586 124.379 95.2666 124.08C95.096 123.76 94.8933 123.6 94.6586 123.6C94.232 123.6 93.7946 123.728 93.3466 123.984C92.8986 124.24 92.5253 124.539 92.2266 124.88V137.808L87.8426 138.192V120.368ZM119.788 138.416C118.594 138.416 117.708 138.181 117.132 137.712C116.556 137.221 116.151 136.571 115.916 135.76L114.828 138.192L111.436 137.808V114.576L115.916 114V122.288C116.45 121.52 117.122 120.912 117.932 120.464C118.743 119.995 119.596 119.76 120.492 119.76C121.879 119.76 122.967 120.496 123.756 121.968C124.546 123.419 124.94 125.765 124.94 129.008C124.94 135.28 123.223 138.416 119.788 138.416ZM118.124 135.216C119.106 135.216 119.735 134.693 120.012 133.648C120.311 132.603 120.46 131.056 120.46 129.008C120.46 127.579 120.396 126.491 120.268 125.744C120.162 124.976 119.959 124.432 119.66 124.112C119.383 123.771 118.967 123.6 118.412 123.6C118.028 123.6 117.58 123.739 117.068 124.016C116.556 124.293 116.172 124.56 115.916 124.816V130.512C115.916 132.219 116.119 133.435 116.524 134.16C116.951 134.864 117.484 135.216 118.124 135.216ZM131.871 138.416C130.698 138.416 129.738 138.011 128.991 137.2C128.244 136.368 127.871 135.259 127.871 133.872V120.368L132.351 119.984V132.048C132.351 132.901 132.49 133.52 132.767 133.904C133.044 134.267 133.471 134.448 134.047 134.448C134.495 134.448 134.975 134.341 135.487 134.128C135.999 133.893 136.458 133.531 136.863 133.04V120.368L141.375 119.984V137.808L136.863 138.192V135.888C136.116 136.741 135.295 137.381 134.399 137.808C133.524 138.213 132.682 138.416 131.871 138.416ZM145.249 120.368L149.729 119.984V122.896C150.369 121.979 151.158 121.243 152.097 120.688C153.057 120.112 154.273 119.824 155.745 119.824V124.208C154.977 124.208 153.964 124.347 152.705 124.624C151.468 124.88 150.476 125.339 149.729 126V137.808L145.249 138.192V120.368ZM164.298 143.6C161.909 143.6 160.053 143.259 158.73 142.576C157.408 141.915 156.746 140.997 156.746 139.824C156.746 139.013 157.045 138.331 157.642 137.776C158.24 137.2 158.997 136.741 159.914 136.4C159.104 136.165 158.496 135.867 158.09 135.504C157.685 135.141 157.482 134.619 157.482 133.936C157.482 133.104 157.77 132.357 158.346 131.696C158.922 131.013 159.68 130.448 160.618 130C158.698 128.891 157.738 127.344 157.738 125.36C157.738 124.165 158.058 123.152 158.698 122.32C159.36 121.467 160.202 120.827 161.226 120.4C162.272 119.973 163.36 119.76 164.49 119.76C166.176 119.76 167.669 120.208 168.97 121.104C169.61 120.528 170.25 120.048 170.89 119.664C171.552 119.28 172.373 119.088 173.354 119.088V122.064C172.117 122.064 171.168 122.213 170.506 122.512C170.762 123.173 170.933 123.696 171.018 124.08C171.125 124.464 171.178 124.88 171.178 125.328C171.178 126.779 170.688 128.048 169.706 129.136C168.725 130.203 167.125 130.736 164.906 130.736L163.722 130.704C163.53 130.683 163.296 130.672 163.018 130.672C162.741 130.757 162.474 130.949 162.218 131.248C161.962 131.525 161.834 131.824 161.834 132.144C161.834 132.443 161.941 132.699 162.154 132.912C162.368 133.125 162.634 133.253 162.954 133.296L168.074 133.872C171.04 134.213 172.522 135.653 172.522 138.192C172.522 140.176 171.754 141.573 170.218 142.384C168.704 143.195 166.73 143.6 164.298 143.6ZM164.426 128.176C165.088 128.176 165.6 127.931 165.962 127.44C166.325 126.928 166.506 126.213 166.506 125.296C166.506 124.357 166.314 123.653 165.93 123.184C165.546 122.715 165.056 122.48 164.458 122.48C163.797 122.48 163.274 122.747 162.89 123.28C162.506 123.813 162.314 124.475 162.314 125.264C162.314 125.989 162.474 126.661 162.794 127.28C163.114 127.877 163.658 128.176 164.426 128.176ZM164.49 140.336C166.922 140.336 168.138 139.675 168.138 138.352C168.138 137.989 168.042 137.723 167.85 137.552C167.658 137.381 167.349 137.264 166.922 137.2C166.517 137.115 165.845 137.04 164.906 136.976L162.25 136.752C161.866 136.88 161.536 137.115 161.258 137.456C160.981 137.776 160.842 138.139 160.842 138.544C160.842 139.12 161.141 139.557 161.738 139.856C162.357 140.176 163.274 140.336 164.49 140.336ZM194.518 138.192L187.51 123.184V137.808L183.318 138V114.192L188.214 114L194.422 128.272V114.384L198.39 114V137.808L194.518 138.192ZM208.449 138.416C206.294 138.416 204.63 137.563 203.457 135.856C202.305 134.149 201.729 131.877 201.729 129.04C201.729 126.224 202.305 123.973 203.457 122.288C204.609 120.603 206.273 119.76 208.449 119.76C210.603 119.76 212.267 120.603 213.441 122.288C214.635 123.973 215.233 126.224 215.233 129.04C215.233 131.856 214.635 134.128 213.441 135.856C212.267 137.563 210.603 138.416 208.449 138.416ZM208.449 135.088C209.409 135.088 210.027 134.501 210.305 133.328C210.582 132.155 210.721 130.715 210.721 129.008C210.721 127.301 210.582 125.861 210.305 124.688C210.027 123.515 209.409 122.928 208.449 122.928C207.489 122.928 206.881 123.483 206.625 124.592C206.369 125.701 206.241 127.056 206.241 128.656C206.241 130.619 206.369 132.187 206.625 133.36C206.881 134.512 207.489 135.088 208.449 135.088ZM224.136 138.416C221.981 138.416 220.317 137.563 219.144 135.856C217.992 134.149 217.416 131.877 217.416 129.04C217.416 126.224 217.992 123.973 219.144 122.288C220.296 120.603 221.96 119.76 224.136 119.76C226.291 119.76 227.955 120.603 229.128 122.288C230.323 123.973 230.92 126.224 230.92 129.04C230.92 131.856 230.323 134.128 229.128 135.856C227.955 137.563 226.291 138.416 224.136 138.416ZM224.136 135.088C225.096 135.088 225.715 134.501 225.992 133.328C226.269 132.155 226.408 130.715 226.408 129.008C226.408 127.301 226.269 125.861 225.992 124.688C225.715 123.515 225.096 122.928 224.136 122.928C223.176 122.928 222.568 123.483 222.312 124.592C222.056 125.701 221.928 127.056 221.928 128.656C221.928 130.619 222.056 132.187 222.312 133.36C222.568 134.512 223.176 135.088 224.136 135.088ZM233.968 120.368L238.448 119.984V122.896C239.088 121.979 239.877 121.243 240.816 120.688C241.776 120.112 242.992 119.824 244.464 119.824V124.208C243.696 124.208 242.682 124.347 241.424 124.624C240.186 124.88 239.194 125.339 238.448 126V137.808L233.968 138.192V120.368ZM251.289 138.416C247.833 138.416 246.105 135.28 246.105 129.008C246.105 125.744 246.532 123.387 247.385 121.936C248.238 120.485 249.572 119.76 251.385 119.76C252.153 119.76 252.889 120.016 253.593 120.528C254.297 121.019 254.809 121.637 255.129 122.384V114.576L259.641 114V137.808L256.249 138.192L255.129 135.76C254.916 136.549 254.521 137.189 253.945 137.68C253.369 138.171 252.484 138.416 251.289 138.416ZM252.953 135.216C253.593 135.216 254.116 134.864 254.521 134.16C254.926 133.435 255.129 132.219 255.129 130.512V124.496C254.51 123.536 253.785 123.056 252.953 123.056C252.249 123.056 251.726 123.312 251.385 123.824C251.065 124.315 250.852 124.965 250.745 125.776C250.66 126.587 250.617 127.664 250.617 129.008C250.617 130.373 250.66 131.483 250.745 132.336C250.852 133.189 251.076 133.883 251.417 134.416C251.758 134.949 252.27 135.216 252.953 135.216Z" fill="white"/>
<path d="M97.8155 56.0833H99.1554H99.4485H99.7416H100.035L100.328 56.0417L100.621 56L100.872 55.9167L101.123 55.8333L101.375 55.75L101.584 55.625L101.793 55.5L101.961 55.3333L102.128 55.1667L102.254 54.9583L102.338 54.75L102.38 54.5L102.422 54.25L102.38 53.9583L102.338 53.7083L102.254 53.5L102.128 53.2917L102.003 53.125L101.835 52.9583L101.626 52.8333L101.417 52.75L101.165 52.6667L100.914 52.5833L100.663 52.5417L100.37 52.5H100.077H99.7835H97.7736V56.0833H97.8155ZM97.8155 63.5H99.2392H99.5741H99.9091L100.244 63.4583L100.579 63.4167L100.872 63.375L101.165 63.3333L101.458 63.25L101.71 63.125L101.961 63L102.212 62.8333L102.422 62.6667L102.589 62.4583L102.715 62.25L102.798 62L102.84 61.7083L102.882 61.4167L102.84 61.0417L102.757 60.75L102.673 60.4583L102.547 60.2083L102.38 60L102.17 59.8333L101.961 59.6667L101.71 59.5417L101.458 59.4583L101.165 59.375L100.872 59.3333L100.579 59.2917L100.244 59.25H99.9091H97.8155V63.5V63.5ZM93 49H101.291H101.919L102.505 49.0417L103.092 49.125L103.636 49.25L104.18 49.4167L104.641 49.625L105.101 49.8333L105.52 50.125L105.897 50.4167L106.232 50.75L106.525 51.125L106.776 51.5417L106.944 52L107.111 52.5L107.195 53L107.237 53.5833V53.9583L107.195 54.3333L107.111 54.7083L107.028 55.0417L106.902 55.375L106.735 55.6667L106.567 55.9583L106.358 56.2083L106.148 56.4583L105.897 56.6667L105.646 56.875L105.353 57.0833L105.06 57.25L104.725 57.4167L104.39 57.5833L104.013 57.7083V57.75L104.431 57.8333L104.85 57.9583L105.227 58.0833L105.562 58.25L105.897 58.4167L106.19 58.625L106.441 58.8333L106.693 59.0833L106.902 59.3333L107.07 59.625L107.237 59.9167L107.363 60.2083L107.446 60.5417L107.53 60.9167L107.572 61.2917V61.7083L107.53 62.4583L107.404 63.125L107.195 63.75L106.944 64.2917L106.609 64.7917L106.232 65.2083L105.771 65.5833L105.311 65.875L104.766 66.125L104.222 66.3333L103.636 66.5L103.05 66.625L102.422 66.7083L101.793 66.7917L101.165 66.8333H100.579H93V49ZM118.459 56.4167H119.715H120.008H120.302H120.595H120.888L121.181 56.375L121.474 56.3333L121.767 56.25L122.018 56.1667L122.27 56.0417L122.521 55.875L122.73 55.7083L122.898 55.5L123.065 55.2917L123.149 55L123.233 54.7083L123.275 54.375L123.233 54.0833L123.191 53.8333L123.107 53.5833L122.981 53.375L122.814 53.1667L122.646 53L122.437 52.8333L122.186 52.7083L121.935 52.625L121.641 52.5417L121.348 52.4583L121.013 52.4167L120.678 52.375L120.343 52.3333H118.459V56.4167ZM113.644 49H122.228H122.814L123.4 49.0417L123.945 49.125L124.489 49.25L124.991 49.4167L125.452 49.625L125.913 49.875L126.331 50.125L126.708 50.4167L127.043 50.75L127.336 51.125L127.588 51.5417L127.797 52L127.923 52.5L128.006 53L128.048 53.5833V54L128.006 54.4167L127.923 54.7917L127.839 55.1667L127.713 55.5417L127.546 55.875L127.378 56.1667L127.169 56.4583L126.918 56.75L126.666 57L126.373 57.25L126.038 57.4583L125.703 57.625L125.326 57.7917L124.949 57.9583L124.531 58.0833V58.125L124.782 58.2083L125.033 58.3333L125.243 58.4583L125.452 58.625L125.619 58.7917L125.787 59L125.954 59.2083L126.08 59.4583L126.206 59.7083L126.331 60L126.457 60.2917L126.583 60.625L126.708 60.9583L126.834 61.3333L127.001 61.7083L127.169 62.125L128.927 66.875H123.903L122.856 63.6667L122.646 63.125L122.479 62.625L122.311 62.1667L122.144 61.7917L121.976 61.4167L121.809 61.125L121.641 60.875L121.474 60.625L121.265 60.4167L121.055 60.25L120.846 60.125L120.595 60.0417L120.343 59.9583L120.092 59.9167L119.799 59.875H118.459V66.875H113.644V49ZM142.243 52.7083H142.201L139.856 59.7083H144.421L142.243 52.7083ZM139.312 49H145.216L152.167 66.8333H146.891L145.551 63.0417H138.768L137.344 66.8333H132.445L139.312 49ZM156.983 49H163.138L169.252 61.125H169.294L169.21 49H173.607V66.875H167.619L161.296 54.6667H161.254L161.421 66.875H156.983V49ZM185.373 63.3333H187.215L187.844 63.2917L188.472 63.2083L189.058 63.125L189.602 62.9583L190.105 62.7917L190.565 62.5417L190.984 62.25L191.361 61.9583L191.696 61.5833L191.989 61.1667L192.24 60.7083L192.45 60.2083L192.617 59.6667L192.743 59.0833L192.826 58.4583L192.868 57.8333L192.826 57.1667L192.743 56.5417L192.617 56L192.45 55.4583L192.24 54.9583L191.989 54.5L191.696 54.125L191.361 53.75L190.984 53.4167L190.565 53.125L190.105 52.9167L189.602 52.7083L189.058 52.5417L188.472 52.4583L187.844 52.375H187.215H185.373V63.3333ZM180.558 49H187.132H188.262L189.351 49.0833L190.398 49.2083L191.403 49.4167L192.324 49.6667L193.203 49.9583L193.999 50.3333L194.753 50.7917L195.423 51.3333L196.009 51.9583L196.511 52.7083L196.93 53.5417L197.265 54.4583L197.516 55.5L197.684 56.625L197.768 57.875L197.684 59.0833L197.516 60.1667L197.265 61.1667L196.93 62.0833L196.511 62.9167L196.009 63.6667L195.381 64.3333L194.711 64.9167L193.957 65.4167L193.161 65.8333L192.282 66.1667L191.319 66.4583L190.314 66.6667L189.267 66.8333L188.179 66.9167L187.132 66.875H180.558V49ZM202.122 49H207.022L209.367 62.7083H209.408L211.837 49H217.951L220.463 62.7083H220.505L222.85 49H227.54L223.478 66.8333H217.322L214.768 53.125H214.726L212.34 66.8333H206.1L202.122 49ZM232.732 49H245.461V52.375H237.547V56.0417H245.043V59.4167H237.547V63.4583H245.755V66.8333H232.732V49ZM252.161 49H264.891V52.375H256.977V56.0417H264.472V59.4167H256.977V63.4583H265.184V66.8333H252.161V49ZM276.448 56.4167H277.704H277.997H278.29H278.625H278.918L279.212 56.375L279.505 56.3333L279.798 56.25L280.049 56.1667L280.3 56.0417L280.551 55.875L280.761 55.7083L280.928 55.5L281.096 55.2917L281.18 55L281.263 54.7083L281.305 54.375L281.263 54.0833L281.221 53.8333L281.138 53.5833L281.012 53.375L280.845 53.1667L280.677 53L280.468 52.8333L280.216 52.7083L279.965 52.625L279.714 52.5417L279.421 52.4583L279.128 52.4167L278.793 52.375L278.458 52.3333H276.49V56.4167H276.448ZM271.632 49H280.216H280.803L281.389 49.0417L281.933 49.125L282.478 49.25L282.98 49.4167L283.441 49.625L283.901 49.875L284.32 50.125L284.697 50.4167L285.032 50.75L285.325 51.125L285.576 51.5417L285.786 52L285.911 52.5L285.995 53L286.037 53.5833V54L285.995 54.4167L285.911 54.7917L285.828 55.1667L285.702 55.5417L285.576 55.875L285.409 56.1667L285.199 56.4583L284.948 56.75L284.697 57L284.404 57.25L284.111 57.4583L283.776 57.625L283.399 57.7917L283.022 57.9583L282.603 58.0833V58.125L282.855 58.2083L283.106 58.3333L283.315 58.4583L283.525 58.625L283.692 58.7917L283.859 59L284.027 59.2083L284.153 59.4583L284.278 59.7083L284.404 60L284.529 60.2917L284.655 60.625L284.781 60.9583L284.906 61.3333L285.074 61.7083L285.241 62.125L287 67H281.975L280.928 63.7917L280.719 63.25L280.551 62.75L280.384 62.2917L280.216 61.9167L280.049 61.5417L279.882 61.25L279.714 61L279.547 60.75L279.337 60.5417L279.128 60.375L278.918 60.25L278.667 60.1667L278.416 60.0833L278.165 60.0417L277.872 60H276.532V66.875H271.716V49H271.632Z" fill="white"/>
<path d="M53.9534 57.6619L53.6563 56.9893L53.3168 56.3166L52.9348 55.6861L52.1284 54.4249L51.7039 53.7943L51.2795 53.1637L50.8551 52.5751L50.4306 51.9866L50.0487 51.398L49.6667 50.8095L49.2847 50.2209L48.9451 49.6324L48.6056 49.0438L48.3509 48.4553L48.1387 47.8667L47.9265 47.9088L47.7143 47.9928L47.5445 48.0769L47.3323 48.119L47.1625 48.203L46.9928 48.2871L46.823 48.3712L46.441 48.4973L46.2712 48.5814L46.1014 48.6655L45.9317 48.7496L45.7619 48.8336L45.5921 48.9177L45.4224 49.0018L45.2526 49.0859L45.3799 50.5993L45.5921 52.0707L45.8892 53.458L46.2712 54.7612L46.6957 55.9803L47.205 57.1574L47.7567 58.2925L48.3509 59.3435L48.9876 60.3104L49.6667 61.2352L50.3882 62.076L51.1097 62.8748L51.8313 63.5894L52.5528 64.2621L53.2743 64.8927L53.9959 65.4392L54.2081 64.8086L54.3778 64.22L54.5476 63.6735L54.6325 63.127L54.7174 62.6225L54.7598 62.1181L54.8023 61.6556V61.1091L54.7598 60.6467L54.7174 60.1843L54.6325 59.7639L54.4203 58.9231L54.293 58.5027L53.9534 57.6619ZM62.1449 43.2844L62.824 43.3685L63.5031 43.4946L64.1822 43.6208L64.8613 43.7889L65.4979 43.9571L66.1346 44.1252L66.7712 44.2934L67.4079 44.5036L68.0021 44.7138L68.5963 44.924L69.1905 45.1342L69.7847 45.3444L70.3364 45.5966L71.3975 46.1431L71.9068 46.4374L71.8644 47.5304L71.8219 48.5814L71.7371 49.6324L71.6097 50.6413L71.44 51.6503L71.2277 52.5751L71.0155 53.5L70.7609 54.3828L70.4638 55.2657L70.1667 56.1064L69.8271 56.9472L69.4876 57.746L69.1056 58.5027L68.7236 59.2594L68.3416 59.9741L67.9172 60.6887L71.44 64.6825L72.0342 63.7576L72.5859 62.7907L73.1377 61.7818L73.647 60.7728L74.1139 59.7218L74.5807 58.6288L75.0052 57.4937L75.3872 56.3587L75.7267 55.1395L76.0663 53.9204L76.3209 52.6592L76.5756 51.356L76.7453 50.0107L76.8727 48.6234L76.9576 47.1941L77 45.7648L76.1936 45.2182L75.3447 44.6717L74.4534 44.1673L73.5197 43.7048L72.5435 43.2424L71.5248 42.864L70.5062 42.4857L69.4451 42.1494L68.3416 41.8551L67.2381 41.5608L66.0921 41.3086L64.9462 41.0984L63.7578 40.8882L62.5694 40.72L61.381 40.5939L60.1925 40.5098L60.2774 40.678L60.3623 40.8462L60.4896 41.0143L60.5745 41.1825L60.8292 41.5608L60.9141 41.729L61.0414 41.8971L61.2961 42.2755L61.4234 42.4437L61.6781 42.822L61.8054 42.9902L61.9327 43.1583L62.1449 43.2844ZM41.1356 46.3533V47.4463L41.1781 48.4973L41.2629 49.5483L41.3903 50.5572L41.56 51.5662L41.7298 52.4911L41.942 53.4159L42.1967 54.2987L42.4938 55.1816L42.7909 56.0224L43.1304 56.8631L43.47 57.6619L43.852 58.4186L44.234 59.1753L44.6159 59.89L45.0404 60.6047L41.4752 64.5984L40.881 63.6735L40.3292 62.7066L39.7774 61.6977L39.2681 60.6887L38.8012 59.6377L38.3344 58.5447L37.9099 57.4097L37.528 56.2746L37.1884 55.0555L36.8489 53.8363L36.5942 52.5751L36.382 51.2719L36.2122 49.9267L36.0849 48.5394L36 47.11V45.6807L36.5942 45.2603L37.2309 44.8399L37.8675 44.4615L38.5466 44.0832L39.2681 43.7469L39.9896 43.4106L40.7536 43.1163L41.5176 42.822L42.324 42.5277L43.1304 42.2755L43.9369 42.0233L44.7857 41.771L45.6346 41.5608L46.5259 41.3506L47.4172 41.1825L48.3085 41.0143L48.1812 41.3927L48.1387 41.6029L48.0963 41.771L48.0538 41.9392L48.0114 42.1073L47.9689 42.2755L47.9265 42.4437L47.8841 42.6118L47.7992 42.9902L47.7567 43.1583V43.3265L47.7143 43.6628V43.8309L47.2474 43.915L46.7805 44.0411L46.3561 44.1673L45.9317 44.2934L45.5072 44.4195L45.0828 44.5456L44.6584 44.7138L44.2764 44.8819L43.8944 45.0501L43.5124 45.2182L43.1304 45.3864L42.7484 45.5546L42.3665 45.7227L41.6449 46.1011L41.1356 46.3533ZM56.5424 77L56.0331 76.8318L55.4814 76.6216L54.9296 76.3694L54.3354 76.0751L53.6988 75.7809L53.0621 75.4446L52.4255 75.0662L51.7464 74.6458L51.0248 74.1834L50.3033 73.6789L49.5818 73.1324L48.8602 72.5859L48.1387 71.9973L47.4172 71.3667L46.6957 70.6941L45.9741 70.0215L49.4969 66.0698L49.9638 66.5322L50.94 67.373L51.4068 67.7513L51.8737 68.1297L52.3406 68.466L52.8075 68.8023L53.2743 69.1386L53.7412 69.4329L54.1656 69.7272L54.5901 69.9794L55.0145 70.2317L55.4389 70.4419L55.8209 70.6521L56.2029 70.8623L56.5849 71.0304L56.9244 70.8623L57.3064 70.6521L57.6884 70.4419L58.0704 70.2317L58.4948 69.9794L58.9193 69.7272L59.3861 69.4329L59.853 69.1386L60.3199 68.8023L60.7867 68.466L61.2536 68.1297L61.7205 67.7513L62.1874 67.373L63.1636 66.5322L63.6729 66.0698L67.1956 70.0215L66.4741 70.6941L65.7526 71.3667L65.0311 71.9973L64.3095 72.5859L63.588 73.1324L62.8665 73.6789L62.1449 74.1834L61.381 74.5617L60.7019 74.9821L60.0228 75.3605L59.3861 75.6968L58.7495 75.9911L58.1553 76.2853L57.6035 76.5376L57.0518 76.7478L56.5424 77ZM61.8903 57.6619L62.3996 56.9472L62.8665 56.2326L63.2484 55.5179L63.588 54.8453L63.8427 54.1726L64.0973 53.5L64.2671 52.8274L64.3944 52.1547L64.4793 51.5242L64.5217 50.8936L64.5642 50.305V49.7585L64.5217 49.212L64.4793 48.7075L64.3944 48.203L64.3095 47.7406L64.5642 47.8247L64.8188 47.9088L65.2857 48.0349L65.7526 48.203L66.0072 48.2871L66.2195 48.3712L66.4741 48.4553L66.6863 48.5394L66.8985 48.6234L67.1108 48.7075L67.323 48.7916L67.5352 48.8757L67.7474 48.9598L67.9596 49.0438L67.7899 50.9356L67.4928 52.7013L67.0683 54.3828L66.5166 55.9383L65.8799 57.4097L65.1584 58.7549L64.352 60.0161L63.5031 61.1512L62.6118 62.2022L61.7205 63.1691L60.7867 64.0519L59.8954 64.8086L59.0041 65.4812L58.1553 66.0698L57.3489 66.5742L56.6273 66.9946L56.5424 66.9526L56.4576 66.9106L56.3727 66.8265L56.2878 66.7844L56.2029 66.7424L56.118 66.6583L56.0331 66.6163L55.9058 66.5322L55.8209 66.4481L55.6936 66.364L55.6087 66.28L55.4814 66.1959L55.3965 66.1118L55.2692 66.0277L55.1418 65.9437L55.0569 65.8596L56.118 64.3882L56.9244 62.9168L57.4762 61.4454L57.8157 60.0581L57.9855 58.7129L57.9431 57.4097L57.7733 56.1485L57.4762 54.9714L57.0942 53.8363L56.6698 52.8274L56.2029 51.9025L55.736 51.0617L55.2692 50.347L54.8447 49.7165L54.4627 49.212L54.2081 48.8757L53.9959 48.5814L53.7836 48.2871L53.5714 47.9508L53.3592 47.6145L53.1046 47.2782L52.8923 46.8998L52.6801 46.5215L52.4679 46.1431L52.2557 45.7648L51.8737 44.966L51.7039 44.5877L51.5342 44.2093L51.1946 43.873L51.0673 43.4526L50.9824 43.0742L50.8551 42.4016L50.7702 41.729L50.7277 41.0143V40.2996L50.7702 39.5429L50.8551 38.7862L51.0248 37.9875L51.2795 37.1467L51.619 36.3059L52.001 35.4651L52.4679 34.5823L53.0197 33.6995L53.6563 32.7746L54.4203 31.8497L55.2692 30.9249L56.2453 30L56.6273 30.1682L56.1605 31.0089L55.7785 31.8497L55.4389 32.6485L55.1843 33.4052L54.9721 34.1199L54.8023 34.7925L54.6749 35.4231L54.6325 36.0537L54.5901 36.6422V37.2308L54.6325 37.8193L54.7174 38.4079L54.8447 38.9544L55.0145 39.5009L55.1843 40.0474L55.3965 40.5939L55.6511 41.2245L55.9907 41.8971L56.3727 42.5698L56.7971 43.2424L57.264 43.9571L57.7308 44.6717L58.2402 45.3864L58.7495 46.1431L59.2588 46.8998L59.7257 47.6565L60.1925 48.4132L60.617 49.17L60.999 49.9267L61.3385 50.6834L61.5932 51.4401L61.8054 52.1968L61.8478 52.4911L61.8903 52.7853L61.9752 53.4159V53.7102L62.0176 54.0045V55.0134V55.3497L61.9752 55.7281L61.9327 56.0644L61.8903 56.4428L61.8054 56.8211L61.6356 57.5778L61.8903 57.6619Z" fill="#C9AF53"/>
</svg>
